<svg width="46" height="46" viewBox="0 0 46 46" fill="none" xmlns="http://www.w3.org/2000/svg">
<g id="cancel">
<mask id="mask0_19_456" style="mask-type:alpha" maskUnits="userSpaceOnUse" x="0" y="0" width="46" height="46">
<rect id="Bounding box" width="46" height="46" fill="#D9D9D9"/>
</mask>
<g mask="url(#mask0_19_456)">
<path id="cancel_2" d="M16.1 32.5834L23 25.6834L29.9 32.5834L32.5834 29.9L25.6834 23L32.5834 16.1L29.9 13.4167L23 20.3167L16.1 13.4167L13.4167 16.1L20.3167 23L13.4167 29.9L16.1 32.5834ZM23 42.1667C20.3487 42.1667 17.857 41.6636 15.525 40.6573C13.1931 39.6511 11.1646 38.2855 9.43962 36.5605C7.71462 34.8355 6.349 32.807 5.34275 30.475C4.3365 28.1431 3.83337 25.6514 3.83337 23C3.83337 20.3487 4.3365 17.857 5.34275 15.525C6.349 13.1931 7.71462 11.1646 9.43962 9.43962C11.1646 7.71462 13.1931 6.349 15.525 5.34275C17.857 4.3365 20.3487 3.83337 23 3.83337C25.6514 3.83337 28.1431 4.3365 30.475 5.34275C32.807 6.349 34.8355 7.71462 36.5605 9.43962C38.2855 11.1646 39.6511 13.1931 40.6573 15.525C41.6636 17.857 42.1667 20.3487 42.1667 23C42.1667 25.6514 41.6636 28.1431 40.6573 30.475C39.6511 32.807 38.2855 34.8355 36.5605 36.5605C34.8355 38.2855 32.807 39.6511 30.475 40.6573C28.1431 41.6636 25.6514 42.1667 23 42.1667ZM23 38.3334C27.2806 38.3334 30.9063 36.848 33.8771 33.8771C36.848 30.9063 38.3334 27.2806 38.3334 23C38.3334 18.7195 36.848 15.0938 33.8771 12.123C30.9063 9.15212 27.2806 7.66671 23 7.66671C18.7195 7.66671 15.0938 9.15212 12.123 12.123C9.15212 15.0938 7.66671 18.7195 7.66671 23C7.66671 27.2806 9.15212 30.9063 12.123 33.8771C15.0938 36.848 18.7195 38.3334 23 38.3334Z" fill="#B90000"/>
</g>
</g>
</svg>
