<svg width="18" height="18" viewBox="0 0 18 18" fill="none" xmlns="http://www.w3.org/2000/svg">
<mask id="mask0_87_445" style="mask-type:alpha" maskUnits="userSpaceOnUse" x="0" y="0" width="18" height="18">
<rect width="18" height="18" fill="#FF7426"/>
</mask>
<g mask="url(#mask0_87_445)">
<path d="M3.75 17.7749C3.3375 17.7749 2.98438 17.628 2.69063 17.3342C2.39688 17.0405 2.25 16.6874 2.25 16.2749V5.77485C2.25 5.36235 2.39688 5.00923 2.69063 4.71548C2.98438 4.42173 3.3375 4.27485 3.75 4.27485H10.4438L8.94375 5.77485H3.75V16.2749H14.25V11.0624L15.75 9.56235V16.2749C15.75 16.6874 15.6031 17.0405 15.3094 17.3342C15.0156 17.628 14.6625 17.7749 14.25 17.7749H3.75ZM12.1313 4.7061L13.2 5.7561L8.25 10.7061V11.7749H9.3L14.2687 6.8061L15.3375 7.8561L10.3687 12.8249C10.2312 12.9624 10.0719 13.0717 9.89062 13.153C9.70937 13.2342 9.51875 13.2749 9.31875 13.2749H7.5C7.2875 13.2749 7.10938 13.203 6.96562 13.0592C6.82188 12.9155 6.75 12.7374 6.75 12.5249V10.7061C6.75 10.5061 6.7875 10.3155 6.8625 10.1342C6.9375 9.95298 7.04375 9.7936 7.18125 9.6561L12.1313 4.7061ZM15.3375 7.8561L12.1313 4.7061L14.0063 2.8311C14.3063 2.5311 14.6656 2.3811 15.0844 2.3811C15.5031 2.3811 15.8562 2.5311 16.1437 2.8311L17.1938 3.89985C17.4813 4.18735 17.625 4.53735 17.625 4.94985C17.625 5.36235 17.4813 5.71235 17.1938 5.99985L15.3375 7.8561Z" fill="#FF7426"/>
</g>
</svg>
