<svg width="18" height="18" viewBox="0 0 18 18" fill="none" xmlns="http://www.w3.org/2000/svg">
<mask id="mask0_87_417" style="mask-type:alpha" maskUnits="userSpaceOnUse" x="0" y="0" width="18" height="18">
<rect width="18" height="18" fill="#005BC6"/>
</mask>
<g mask="url(#mask0_87_417)">
<path d="M12.75 6C12.5375 6 12.3594 5.92813 12.2156 5.78438C12.0719 5.64063 12 5.4625 12 5.25C12 5.0375 12.0719 4.85938 12.2156 4.71563C12.3594 4.57188 12.5375 4.5 12.75 4.5C12.9625 4.5 13.1406 4.57188 13.2844 4.71563C13.4281 4.85938 13.5 5.0375 13.5 5.25C13.5 5.4625 13.4281 5.64063 13.2844 5.78438C13.1406 5.92813 12.9625 6 12.75 6ZM13.4813 10.5H7.51875C7.35625 10.5 7.24063 10.4313 7.17188 10.2938C7.10313 10.1563 7.11875 10.025 7.21875 9.9L8.475 8.25C8.55 8.15 8.65 8.1 8.775 8.1C8.9 8.1 9 8.15 9.075 8.25L9.9375 9.375L11.3625 7.51875C11.4375 7.41875 11.5375 7.36875 11.6625 7.36875C11.7875 7.36875 11.8875 7.41875 11.9625 7.51875L13.7813 9.9C13.8813 10.025 13.8969 10.1563 13.8281 10.2938C13.7594 10.4313 13.6438 10.5 13.4813 10.5ZM3 16.5C2.5875 16.5 2.23438 16.3531 1.94063 16.0594C1.64688 15.7656 1.5 15.4125 1.5 15V5.25C1.5 5.0375 1.57188 4.85938 1.71563 4.71563C1.85938 4.57188 2.0375 4.5 2.25 4.5C2.4625 4.5 2.64063 4.57188 2.78438 4.71563C2.92813 4.85938 3 5.0375 3 5.25V15H12.75C12.9625 15 13.1406 15.0719 13.2844 15.2156C13.4281 15.3594 13.5 15.5375 13.5 15.75C13.5 15.9625 13.4281 16.1406 13.2844 16.2844C13.1406 16.4281 12.9625 16.5 12.75 16.5H3ZM4.5 3C4.5 2.5875 4.64688 2.23438 4.94063 1.94063C5.23438 1.64688 5.5875 1.5 6 1.5H9C9.2125 1.5 9.39063 1.57188 9.53438 1.71563C9.67813 1.85938 9.75 2.0375 9.75 2.25C9.75 2.4625 9.67813 2.64063 9.53438 2.78438C9.39063 2.92813 9.2125 3 9 3H6V6.28125C6 6.49375 5.92813 6.67188 5.78438 6.81563C5.64063 6.95938 5.4625 7.03125 5.25 7.03125C5.0375 7.03125 4.85938 6.95938 4.71563 6.81563C4.57188 6.67188 4.5 6.49375 4.5 6.28125V3ZM6 13.5C5.5875 13.5 5.23438 13.3531 4.94063 13.0594C4.64688 12.7656 4.5 12.4125 4.5 12V9.28125C4.5 9.06875 4.57188 8.89063 4.71563 8.74688C4.85938 8.60313 5.0375 8.53125 5.25 8.53125C5.4625 8.53125 5.64063 8.60313 5.78438 8.74688C5.92813 8.89063 6 9.06875 6 9.28125V12H9C9.2125 12 9.39063 12.0719 9.53438 12.2156C9.67813 12.3594 9.75 12.5375 9.75 12.75C9.75 12.9625 9.67813 13.1406 9.53438 13.2844C9.39063 13.4281 9.2125 13.5 9 13.5H6ZM15 13.5H12C11.7875 13.5 11.6094 13.4281 11.4656 13.2844C11.3219 13.1406 11.25 12.9625 11.25 12.75C11.25 12.5375 11.3219 12.3594 11.4656 12.2156C11.6094 12.0719 11.7875 12 12 12H15V9.28125C15 9.06875 15.0719 8.89063 15.2156 8.74688C15.3594 8.60313 15.5375 8.53125 15.75 8.53125C15.9625 8.53125 16.1406 8.60313 16.2844 8.74688C16.4281 8.89063 16.5 9.06875 16.5 9.28125V12C16.5 12.4125 16.3531 12.7656 16.0594 13.0594C15.7656 13.3531 15.4125 13.5 15 13.5ZM16.5 3V6.28125C16.5 6.49375 16.4281 6.67188 16.2844 6.81563C16.1406 6.95938 15.9625 7.03125 15.75 7.03125C15.5375 7.03125 15.3594 6.95938 15.2156 6.81563C15.0719 6.67188 15 6.49375 15 6.28125V3H12C11.7875 3 11.6094 2.92813 11.4656 2.78438C11.3219 2.64063 11.25 2.4625 11.25 2.25C11.25 2.0375 11.3219 1.85938 11.4656 1.71563C11.6094 1.57188 11.7875 1.5 12 1.5H15C15.4125 1.5 15.7656 1.64688 16.0594 1.94063C16.3531 2.23438 16.5 2.5875 16.5 3Z" fill="#005BC6"/>
</g>
</svg>
