<svg width="33" height="33" viewBox="0 0 33 33" fill="none" xmlns="http://www.w3.org/2000/svg">
<g id="print">
<mask id="mask0_19_453" style="mask-type:alpha" maskUnits="userSpaceOnUse" x="0" y="0" width="33" height="33">
<rect id="Bounding box" width="33" height="33" fill="#6E6E6E"/>
</mask>
<g mask="url(#mask0_19_453)">
<path id="print_2" d="M22 11V6.875H11V11H8.25V4.125H24.75V11H22ZM24.75 17.1875C25.1396 17.1875 25.4661 17.0557 25.7297 16.7922C25.9932 16.5286 26.125 16.2021 26.125 15.8125C26.125 15.4229 25.9932 15.0964 25.7297 14.8328C25.4661 14.5693 25.1396 14.4375 24.75 14.4375C24.3604 14.4375 24.0339 14.5693 23.7703 14.8328C23.5068 15.0964 23.375 15.4229 23.375 15.8125C23.375 16.2021 23.5068 16.5286 23.7703 16.7922C24.0339 17.0557 24.3604 17.1875 24.75 17.1875ZM22 26.125V20.625H11V26.125H22ZM24.75 28.875H8.25V23.375H2.75V15.125C2.75 13.9563 3.15104 12.9766 3.95312 12.1859C4.75521 11.3953 5.72917 11 6.875 11H26.125C27.2938 11 28.2734 11.3953 29.0641 12.1859C29.8547 12.9766 30.25 13.9563 30.25 15.125V23.375H24.75V28.875ZM27.5 20.625V15.125C27.5 14.7354 27.3682 14.4089 27.1047 14.1453C26.8411 13.8818 26.5146 13.75 26.125 13.75H6.875C6.48542 13.75 6.15885 13.8818 5.89531 14.1453C5.63177 14.4089 5.5 14.7354 5.5 15.125V20.625H8.25V17.875H24.75V20.625H27.5Z" fill="#6E6E6E"/>
</g>
</g>
</svg>
