<svg width="18" height="18" viewBox="0 0 18 18" fill="none" xmlns="http://www.w3.org/2000/svg">
<mask id="mask0_87_485" style="mask-type:alpha" maskUnits="userSpaceOnUse" x="0" y="0" width="18" height="18">
<rect width="18" height="18" fill="#D9D9D9"/>
</mask>
<g mask="url(#mask0_87_485)">
<path d="M3.75 8.25C3.3375 8.25 2.98438 8.10313 2.69063 7.80937C2.39688 7.51562 2.25 7.1625 2.25 6.75V3.75C2.25 3.3375 2.39688 2.98438 2.69063 2.69063C2.98438 2.39688 3.3375 2.25 3.75 2.25H6.75C7.1625 2.25 7.51562 2.39688 7.80937 2.69063C8.10313 2.98438 8.25 3.3375 8.25 3.75V6.75C8.25 7.1625 8.10313 7.51562 7.80937 7.80937C7.51562 8.10313 7.1625 8.25 6.75 8.25H3.75ZM3.75 6.75H6.75V3.75H3.75V6.75ZM3.75 15.75C3.3375 15.75 2.98438 15.6031 2.69063 15.3094C2.39688 15.0156 2.25 14.6625 2.25 14.25V11.25C2.25 10.8375 2.39688 10.4844 2.69063 10.1906C2.98438 9.89688 3.3375 9.75 3.75 9.75H6.75C7.1625 9.75 7.51562 9.89688 7.80937 10.1906C8.10313 10.4844 8.25 10.8375 8.25 11.25V14.25C8.25 14.6625 8.10313 15.0156 7.80937 15.3094C7.51562 15.6031 7.1625 15.75 6.75 15.75H3.75ZM3.75 14.25H6.75V11.25H3.75V14.25ZM11.25 8.25C10.8375 8.25 10.4844 8.10313 10.1906 7.80937C9.89688 7.51562 9.75 7.1625 9.75 6.75V3.75C9.75 3.3375 9.89688 2.98438 10.1906 2.69063C10.4844 2.39688 10.8375 2.25 11.25 2.25H14.25C14.6625 2.25 15.0156 2.39688 15.3094 2.69063C15.6031 2.98438 15.75 3.3375 15.75 3.75V6.75C15.75 7.1625 15.6031 7.51562 15.3094 7.80937C15.0156 8.10313 14.6625 8.25 14.25 8.25H11.25ZM11.25 6.75H14.25V3.75H11.25V6.75ZM14.625 15.75C14.525 15.75 14.4375 15.7125 14.3625 15.6375C14.2875 15.5625 14.25 15.475 14.25 15.375V14.625C14.25 14.525 14.2875 14.4375 14.3625 14.3625C14.4375 14.2875 14.525 14.25 14.625 14.25H15.375C15.475 14.25 15.5625 14.2875 15.6375 14.3625C15.7125 14.4375 15.75 14.525 15.75 14.625V15.375C15.75 15.475 15.7125 15.5625 15.6375 15.6375C15.5625 15.7125 15.475 15.75 15.375 15.75H14.625ZM10.125 11.25C10.025 11.25 9.9375 11.2125 9.8625 11.1375C9.7875 11.0625 9.75 10.975 9.75 10.875V10.125C9.75 10.025 9.7875 9.9375 9.8625 9.8625C9.9375 9.7875 10.025 9.75 10.125 9.75H10.875C10.975 9.75 11.0625 9.7875 11.1375 9.8625C11.2125 9.9375 11.25 10.025 11.25 10.125V10.875C11.25 10.975 11.2125 11.0625 11.1375 11.1375C11.0625 11.2125 10.975 11.25 10.875 11.25H10.125ZM11.625 12.75C11.525 12.75 11.4375 12.7125 11.3625 12.6375C11.2875 12.5625 11.25 12.475 11.25 12.375V11.625C11.25 11.525 11.2875 11.4375 11.3625 11.3625C11.4375 11.2875 11.525 11.25 11.625 11.25H12.375C12.475 11.25 12.5625 11.2875 12.6375 11.3625C12.7125 11.4375 12.75 11.525 12.75 11.625V12.375C12.75 12.475 12.7125 12.5625 12.6375 12.6375C12.5625 12.7125 12.475 12.75 12.375 12.75H11.625ZM10.125 14.25C10.025 14.25 9.9375 14.2125 9.8625 14.1375C9.7875 14.0625 9.75 13.975 9.75 13.875V13.125C9.75 13.025 9.7875 12.9375 9.8625 12.8625C9.9375 12.7875 10.025 12.75 10.125 12.75H10.875C10.975 12.75 11.0625 12.7875 11.1375 12.8625C11.2125 12.9375 11.25 13.025 11.25 13.125V13.875C11.25 13.975 11.2125 14.0625 11.1375 14.1375C11.0625 14.2125 10.975 14.25 10.875 14.25H10.125ZM11.625 15.75C11.525 15.75 11.4375 15.7125 11.3625 15.6375C11.2875 15.5625 11.25 15.475 11.25 15.375V14.625C11.25 14.525 11.2875 14.4375 11.3625 14.3625C11.4375 14.2875 11.525 14.25 11.625 14.25H12.375C12.475 14.25 12.5625 14.2875 12.6375 14.3625C12.7125 14.4375 12.75 14.525 12.75 14.625V15.375C12.75 15.475 12.7125 15.5625 12.6375 15.6375C12.5625 15.7125 12.475 15.75 12.375 15.75H11.625ZM13.125 14.25C13.025 14.25 12.9375 14.2125 12.8625 14.1375C12.7875 14.0625 12.75 13.975 12.75 13.875V13.125C12.75 13.025 12.7875 12.9375 12.8625 12.8625C12.9375 12.7875 13.025 12.75 13.125 12.75H13.875C13.975 12.75 14.0625 12.7875 14.1375 12.8625C14.2125 12.9375 14.25 13.025 14.25 13.125V13.875C14.25 13.975 14.2125 14.0625 14.1375 14.1375C14.0625 14.2125 13.975 14.25 13.875 14.25H13.125ZM13.125 11.25C13.025 11.25 12.9375 11.2125 12.8625 11.1375C12.7875 11.0625 12.75 10.975 12.75 10.875V10.125C12.75 10.025 12.7875 9.9375 12.8625 9.8625C12.9375 9.7875 13.025 9.75 13.125 9.75H13.875C13.975 9.75 14.0625 9.7875 14.1375 9.8625C14.2125 9.9375 14.25 10.025 14.25 10.125V10.875C14.25 10.975 14.2125 11.0625 14.1375 11.1375C14.0625 11.2125 13.975 11.25 13.875 11.25H13.125ZM14.625 12.75C14.525 12.75 14.4375 12.7125 14.3625 12.6375C14.2875 12.5625 14.25 12.475 14.25 12.375V11.625C14.25 11.525 14.2875 11.4375 14.3625 11.3625C14.4375 11.2875 14.525 11.25 14.625 11.25H15.375C15.475 11.25 15.5625 11.2875 15.6375 11.3625C15.7125 11.4375 15.75 11.525 15.75 11.625V12.375C15.75 12.475 15.7125 12.5625 15.6375 12.6375C15.5625 12.7125 15.475 12.75 15.375 12.75H14.625Z" fill="#1C1B1F"/>
</g>
</svg>
